# Blender v2.80 (sub 75) OBJ File: ''
# www.blender.org
mtllib Arrow.mtl
o Cube_Cube.007
v 1.400000 -0.400000 -0.828268
v 1.400000 0.400000 -0.828268
v 0.000000 -0.400000 0.828268
v 0.000000 0.400000 0.828268
v -1.400000 -0.400000 -0.828268
v -1.400000 0.400000 -0.828268
v 0.597508 -0.400000 -0.827574
v 0.597508 0.400000 -0.827574
v -0.597508 0.400000 -0.827574
v -0.597508 -0.400000 -0.827574
v 0.597507 -0.400000 -3.220814
v 0.597507 0.400000 -3.220814
v -0.597508 0.400000 -3.220814
v -0.597508 -0.400000 -3.220814
vt 0.375000 0.000000
vt 0.625000 0.000000
vt 0.625000 0.250000
vt 0.375000 0.250000
vt 0.375000 0.500000
vt 0.625000 0.500000
vt 0.625000 0.750000
vt 0.375000 0.750000
vt 0.375000 0.000000
vt 0.625000 0.000000
vt 0.125000 0.750000
vt 0.875000 0.500000
vt 0.875000 0.750000
vt 0.375000 0.000000
vt 0.625000 0.000000
vt 0.375000 0.750000
vt 0.125000 0.750000
vt 0.875000 0.750000
vt 0.625000 0.750000
vt 0.375000 0.750000
vt 0.625000 0.750000
vt 0.625000 1.000000
vt 0.375000 1.000000
vt 0.875000 0.750000
vt 0.125000 0.750000
vn 0.7638 0.0000 0.6455
vn -0.7638 0.0000 0.6455
vn -0.0009 0.0000 -1.0000
vn 0.0000 -1.0000 0.0000
vn 0.0000 1.0000 0.0000
vn 1.0000 0.0000 -0.0000
vn 0.0009 0.0000 -1.0000
vn 0.0000 0.0000 -1.0000
vn -1.0000 0.0000 0.0000
usemtl None
s off
f 1/1/1 2/2/1 4/3/1 3/4/1
f 3/5/2 4/6/2 6/7/2 5/8/2
f 2/2/3 1/1/3 7/9/3 8/10/3
f 3/5/4 5/8/4 1/11/4
f 4/12/5 2/13/5 6/7/5
f 8/10/6 7/9/6 11/14/6 12/15/6
f 1/11/5 5/8/5 10/16/5 7/17/5
f 6/7/4 2/13/4 8/18/4 9/19/4
f 5/8/7 6/7/7 9/19/7 10/16/7
f 14/20/8 13/21/8 12/22/8 11/23/8
f 9/19/5 8/18/5 12/24/5 13/21/5
f 10/16/9 9/19/9 13/21/9 14/20/9
f 7/17/4 10/16/4 14/20/4 11/25/4
